PathFileType	4	(X/Y/Z)	C:\Users\dbl\Desktop\LZH\BX\Trimmed_Trimmed_bx_y_5_501.trc
DataRate	CameraRate	NumFrames	NumMarkers	Units	OrigDataRate	OrigDataStartFrame	OrigNumFrames
50.00	50.00	       7	43	mm	50.00	110	       438
Frame#	Time	Top.Head			R.Acromium			L.Acromium			Sternum			R.ASIS			L.ASIS			V.Sacral			R.Thigh.Upper			R.Thigh.Front			R.Thigh.Rear			R.Knee.Lat			R.Knee.Med			R.Shank.Upper			R.Shank.Front			R.Shank.Rear			R.Ankle.Lat			R.Midfoot.Lat			R.Toe.Lat			R.Toe.Tip			R.Toe.Med			R.Ankle.Med			R.Midfoot.Sup			R.Heel			L.Thigh.Upper			L.Thigh.Front			L.Thigh.Rear			L.Knee.Lat			L.Knee.Med			L.Shank.Upper			L.Shank.Front			L.Shank.Rear			L.Ankle.Lat			L.Midfoot.Lat			L.Toe.Lat			L.Toe.Tip			L.Toe.Med			L.Ankle.Med			L.Midfoot.Sup			L.Heel			origin1 front left			origin2 front right			origin 3 back right			origin 4 back leftt			
		X1	Y1	Z1	X2	Y2	Z2	X3	Y3	Z3	X4	Y4	Z4	X5	Y5	Z5	X6	Y6	Z6	X7	Y7	Z7	X8	Y8	Z8	X9	Y9	Z9	X10	Y10	Z10	X11	Y11	Z11	X12	Y12	Z12	X13	Y13	Z13	X14	Y14	Z14	X15	Y15	Z15	X16	Y16	Z16	X17	Y17	Z17	X18	Y18	Z18	X19	Y19	Z19	X20	Y20	Z20	X21	Y21	Z21	X22	Y22	Z22	X23	Y23	Z23	X24	Y24	Z24	X25	Y25	Z25	X26	Y26	Z26	X27	Y27	Z27	X28	Y28	Z28	X29	Y29	Z29	X30	Y30	Z30	X31	Y31	Z31	X32	Y32	Z32	X33	Y33	Z33	X34	Y34	Z34	X35	Y35	Z35	X36	Y36	Z36	X37	Y37	Z37	X38	Y38	Z38	X39	Y39	Z39	X40	Y40	Z40	X41	Y41	Z41	X42	Y42	Z42	X43	Y43	Z43	

110	2.180	-346.01157	264.70969	1774.25195	-517.39984	67.89807	1521.53088	-520.73798	449.76437	1506.82007	-464.04822	268.12189	1355.93384	-589.88232	151.36450	1048.10718	-585.88440	402.00284	1067.20093	-795.67810	264.78397	1031.14600	-625.09430	100.57975	889.93890	-577.30731	157.94783	841.21295	-670.83795	94.31676	745.63434	-683.75153	128.05275	600.11719	-657.88348	235.31659	557.99518	-710.87054	128.93253	537.99109	-625.55273	175.61919	544.88275	-744.37469	132.57724	468.74374	-687.53052	147.84560	213.62726	-614.30383	82.23357	167.96028	-569.37299	56.78946	165.14293	-491.15314	96.96653	164.20763	-529.25311	148.57138	165.74478	-632.91180	220.91840	220.86801	-589.74152	191.88455	171.54698	-714.84412	217.17120	169.32361	-613.25275	442.46494	878.34064	-571.21869	378.25705	836.48883	-659.21698	448.87317	748.74457	-682.86194	418.96454	624.10858	-648.77734	312.77283	578.66095	-685.76129	415.53067	561.81543	-633.21826	371.99545	543.04205	-734.66101	422.61310	507.26010	-681.21777	417.25870	211.21460	-583.04126	467.17908	165.46201	-542.81671	475.88547	161.00327	-477.25485	428.55252	166.61894	-523.72125	386.36343	177.41188	-645.87915	328.56122	208.19870	-594.45032	348.04181	169.48541	-733.31976	346.11060	164.33563	-443.55670	449.10287	146.98422	-450.75677	75.34783	144.73404	-806.18115	82.51488	142.76234	-799.23181	457.95294	144.71066	
111	2.200	-335.28671	264.19028	1767.62305	-508.56842	67.65221	1516.69775	-511.86078	449.45251	1501.69922	-461.06973	267.59509	1349.87622	-594.17786	151.59843	1047.75464	-589.47693	401.57007	1067.46423	-799.84900	264.86642	1031.68201	-629.03363	100.61189	889.86182	-580.52930	157.56935	841.81390	-674.43347	94.26721	745.56287	-686.26361	128.06531	599.95544	-660.11493	235.25122	558.06494	-712.95563	128.96288	537.76270	-627.67310	175.60515	545.05621	-746.01440	132.56784	468.39178	-687.70404	147.82779	213.60707	-614.36469	82.15647	167.88681	-569.37708	56.72453	165.13289	-491.08923	97.02116	164.19853	-529.29663	148.54744	165.71948	-633.20325	220.74644	221.04108	-589.82397	191.76453	171.69641	-714.92065	217.04886	169.33801	-616.98065	442.49854	878.62000	-574.83636	378.31705	836.72015	-662.49445	449.08972	748.58728	-685.34601	419.08600	623.86768	-650.96301	312.88763	578.52869	-687.86700	415.61652	561.67926	-635.20575	372.12085	543.15015	-736.48627	422.84473	506.79462	-681.37347	417.31451	211.07957	-583.04498	467.20828	165.44629	-542.74103	475.92166	161.03783	-477.22415	428.41843	166.55077	-523.66992	386.33472	177.33157	-645.95209	328.67365	208.33110	-594.46747	348.13107	169.50249	-733.23407	346.24362	164.37772	-443.58569	449.11188	146.97185	-450.71939	75.29967	144.80544	-806.19556	82.51875	142.75423	-799.26062	457.91901	144.75926	
112	2.220	-324.44540	263.70871	1760.37939	-499.55573	67.43736	1511.23425	-502.67578	449.18304	1495.96631	-458.04968	267.00909	1343.44897	-598.45911	151.69751	1047.31433	-593.11536	401.00629	1067.66138	-804.09607	264.95612	1032.16614	-633.08026	100.64425	889.73950	-583.86542	157.20758	842.33960	-678.09296	94.21072	745.45270	-688.83154	128.09814	599.78412	-662.42004	235.15678	558.22772	-715.07617	128.95538	537.52509	-629.86597	175.59837	545.20709	-747.67267	132.53329	468.02728	-687.83801	147.80905	213.56522	-614.42615	82.08048	167.82336	-569.38794	56.65715	165.13327	-491.02640	97.08987	164.13527	-529.33112	148.54474	165.66357	-633.41565	220.48007	221.36235	-589.89587	191.67383	171.83243	-714.99475	216.92934	169.34367	-620.79462	442.50916	878.88226	-578.48895	378.30426	837.00421	-665.82819	449.29547	748.44299	-687.87292	419.18552	623.60767	-653.16309	312.97760	578.38953	-690.00861	415.64249	561.50482	-637.21283	372.19678	543.25720	-738.34155	423.05539	506.34674	-681.49982	417.29980	210.93066	-583.03455	467.25140	165.44771	-542.66064	475.95709	161.08743	-477.20224	428.26920	166.51880	-523.61597	386.31366	177.21712	-646.00305	328.77237	208.51039	-594.48730	348.23499	169.49883	-733.09924	346.40228	164.42290	-443.61252	449.12137	146.95515	-450.69940	75.28059	144.82547	-806.20166	82.51971	142.74449	-799.28589	457.88022	144.78366	
113	2.240	-313.52795	263.28629	1752.50623	-490.40997	67.25750	1505.12122	-493.25110	448.93298	1489.60071	-454.95050	266.39468	1336.78040	-602.74902	151.65129	1046.78210	-596.81769	400.31790	1067.78845	-808.41302	265.08893	1032.60718	-637.26251	100.64641	889.58832	-587.44446	156.89828	842.69952	-681.84967	94.13958	745.29279	-691.46326	128.13641	599.59674	-664.82227	235.05106	558.45160	-717.24457	128.91113	537.28046	-632.13312	175.58951	545.34979	-749.37085	132.47345	467.63995	-687.97076	147.74889	213.51433	-614.48755	82.00626	167.76613	-569.40186	56.59762	165.12970	-490.98242	97.17625	164.01540	-529.35278	148.56200	165.59563	-633.58624	220.16318	221.78102	-589.97064	191.59918	171.95630	-715.07574	216.81194	169.34686	-624.68689	442.48212	879.07758	-582.21399	378.19492	837.29712	-669.21497	449.48624	748.28766	-690.47601	419.26108	623.32721	-655.41681	313.03458	578.24585	-692.20544	415.62106	561.28143	-639.25848	372.21066	543.35413	-740.23773	423.24567	505.90057	-681.60132	417.24783	210.78670	-583.01111	467.30542	165.45950	-542.58673	475.98935	161.14433	-477.19833	428.11713	166.53566	-523.55774	386.28366	177.07355	-646.05688	328.86325	208.72179	-594.51099	348.35599	169.48917	-732.93799	346.57986	164.47797	-443.63446	449.13232	146.94089	-450.69940	75.29031	144.79559	-806.19769	82.51562	142.73741	-799.30078	457.85373	144.78157	
114	2.260	-302.58527	262.94763	1743.99890	-481.18018	67.10777	1498.34485	-483.68005	448.67743	1482.59985	-451.77533	265.77527	1329.99170	-607.08679	151.48804	1046.16699	-600.60303	399.52014	1067.84473	-812.82916	265.27750	1033.03589	-641.58459	100.58630	889.43549	-591.33179	156.64400	842.86078	-685.71375	94.03103	745.08502	-694.15778	128.15189	599.38806	-667.33740	234.95071	558.68311	-719.46838	128.83115	537.02527	-634.47076	175.56328	545.49902	-751.12549	132.37798	467.22089	-688.14197	147.61227	213.46747	-614.54688	81.93242	167.71028	-569.41351	56.55126	165.11217	-490.96548	97.27922	163.85384	-529.36237	148.59491	165.52821	-633.77313	219.85342	222.22687	-590.06396	191.51572	172.07098	-715.17126	216.69522	169.35870	-628.65442	442.38980	879.17010	-586.05670	377.97476	837.54089	-672.65363	449.65704	748.09271	-693.18207	419.31577	623.02405	-657.76886	313.04691	578.09851	-694.47852	415.57376	561.00519	-641.36444	372.16461	543.43622	-742.18658	423.42188	505.43546	-681.67993	417.21271	210.67035	-582.97668	467.36554	165.47238	-542.52753	476.01620	161.19942	-477.22321	427.97391	166.58815	-523.49756	386.23038	176.91182	-646.14044	328.95914	208.93796	-594.54266	348.49106	169.48836	-732.78479	346.76236	164.54536	-443.65173	449.14325	146.93228	-450.71683	75.32086	144.73242	-806.18665	82.50741	142.73402	-799.30072	457.85529	144.76646	
115	2.280	-291.67636	262.71332	1734.86475	-471.92163	66.97596	1490.89917	-474.06888	448.39804	1474.98633	-448.56195	265.16385	1323.18201	-611.50128	151.26120	1045.48657	-604.47430	398.63818	1067.80627	-817.39935	265.49597	1033.50281	-646.01965	100.44998	889.30621	-595.50958	156.41608	842.85651	-689.66089	93.85587	744.84521	-696.90234	128.11674	599.15509	-669.95880	234.86336	558.86700	-721.74438	128.71638	536.75024	-636.86694	175.50587	545.66260	-752.94080	132.22934	466.76370	-688.37756	147.38387	213.43211	-614.60046	81.85591	167.65253	-569.41821	56.51561	165.07668	-490.97449	97.39520	163.67639	-529.36627	148.63815	165.46555	-634.02765	219.59592	222.64075	-590.18781	191.39708	172.18054	-715.28204	216.57918	169.39050	-632.70410	442.20569	879.14404	-590.05432	377.65308	837.68750	-676.15051	449.80728	747.83588	-696.00488	419.35699	622.69556	-660.25226	313.00064	577.95099	-696.84534	415.52328	560.67932	-643.54932	372.07788	543.50311	-744.19897	423.58963	504.93225	-681.74017	417.25082	210.60400	-582.93390	467.42606	165.47668	-542.48682	476.03574	161.24486	-477.28442	427.84949	166.64020	-523.44409	386.14972	176.74615	-646.27435	329.07376	209.12547	-594.58771	348.63348	169.50653	-732.67377	346.93289	164.62103	-443.66611	449.15103	146.92889	-450.74509	75.36147	144.65919	-806.17517	82.49900	142.73201	-799.28241	457.89468	144.76266	
116	2.300	-280.86646	262.59207	1725.12708	-462.69922	66.84622	1482.79004	-464.52563	448.08505	1466.80652	-445.36591	264.56436	1316.42139	-615.99255	151.03101	1044.75928	-608.41333	397.71222	1067.61157	-822.17303	265.68097	1034.06299	-650.51141	100.25420	889.21387	-599.89203	156.17767	842.76550	-693.63605	93.59216	744.59851	-699.67426	128.01634	598.89825	-672.65234	234.78265	558.96155	-724.05756	128.56631	536.44647	-639.30029	175.41106	545.83838	-754.80621	132.01050	466.26620	-688.67975	147.07632	213.40556	-614.64325	81.77345	167.59236	-569.41327	56.48193	165.02467	-491.00314	97.52040	163.50916	-529.37537	148.68695	165.40683	-634.36615	219.40108	222.98830	-590.34882	191.22989	172.29192	-715.40033	216.46617	169.44884	-636.85449	441.92398	879.00116	-594.22284	377.27142	837.71545	-679.72729	449.94357	747.50903	-698.94543	419.39264	622.34003	-662.87512	312.88480	577.81207	-699.31628	415.48718	560.31317	-645.82520	371.98300	543.55640	-746.28473	423.74863	504.37762	-681.79578	417.39755	210.60301	-582.88629	467.48196	165.46550	-542.46368	476.04703	161.27550	-477.38400	427.75189	166.64760	-523.40955	386.04913	176.58868	-646.46722	329.21555	209.25409	-594.64832	348.77600	169.54768	-732.62488	347.07767	164.69566	-443.67874	449.15332	146.92801	-450.77570	75.40342	144.59537	-806.17059	82.49564	142.72766	-799.24463	457.97177	144.79634	
